<svg width="40" height="40" viewBox="0 0 40 40" fill="none"
  xmlns="http://www.w3.org/2000/svg">
  <path d="M12.2721 25.3253C13.4378 26.3047 14.8946 26.7678 16.325 27.0061C16.1232 27.3581 15.9617 27.7822 15.864 28.2773C15.4623 28.421 14.9095 28.5588 14.3395 28.5094C13.6731 28.4516 12.9459 28.1372 12.3789 27.1466L12.3774 27.1439L12.3672 27.1262C12.3588 27.1118 12.3471 27.0924 12.3322 27.0685C12.3025 27.0207 12.2596 26.955 12.2037 26.877C12.0923 26.7217 11.9268 26.5142 11.7074 26.3023C11.2722 25.8818 10.5936 25.4148 9.68491 25.3512L9.67257 25.3504L9.6602 25.3501L9.65 25.85C9.6602 25.3501 9.66005 25.3501 9.65988 25.3501L9.65953 25.3501L9.65872 25.3501L9.65669 25.35L9.651 25.35L9.63347 25.3499C9.6192 25.3499 9.59975 25.3501 9.57623 25.3507C9.52965 25.3519 9.46491 25.355 9.39159 25.3624C9.26495 25.3751 9.03677 25.407 8.84387 25.5136C8.74241 25.5696 8.60205 25.6729 8.52178 25.8528C8.4341 26.0492 8.45629 26.2493 8.52506 26.4118C8.58843 26.5616 8.69422 26.6908 8.80855 26.8023C8.92661 26.9174 9.0781 27.0369 9.26347 27.1632L9.29516 27.1848L9.32499 27.199C9.32724 27.2002 9.33194 27.2028 9.3389 27.2068C9.35529 27.2162 9.38424 27.2337 9.42342 27.2609C9.5017 27.3151 9.62117 27.4079 9.76321 27.5515C10.0444 27.8359 10.4205 28.3261 10.7395 29.1248C10.7422 29.1331 10.7457 29.1432 10.7498 29.1549C10.76 29.1837 10.7747 29.2226 10.7944 29.27C10.8337 29.3647 10.8935 29.494 10.9791 29.6437C11.1499 29.9426 11.4265 30.3285 11.8525 30.6822C12.6422 31.338 13.8822 31.8311 15.75 31.5632V33.5C15.75 33.6169 15.7141 33.6873 15.6849 33.7162C15.6739 33.727 15.6086 33.7914 15.3768 33.7617C9.6406 31.8204 5.5 26.3924 5.5 20C5.5 16.1544 7.02767 12.4662 9.74695 9.74695C11.0934 8.4005 12.6919 7.33244 14.4511 6.60375C16.2103 5.87505 18.0958 5.5 20 5.5C21.9042 5.5 23.7897 5.87505 25.5489 6.60375C27.3081 7.33244 28.9066 8.4005 30.253 9.74695C31.5995 11.0934 32.6676 12.6919 33.3963 14.4511C34.1249 16.2103 34.5 18.0958 34.5 20C34.5 26.3937 30.3725 31.8083 24.6336 33.7632C24.3946 33.7985 24.3281 33.7328 24.3172 33.722L24.317 33.7218C24.2866 33.6917 24.25 33.6181 24.25 33.5V29.39C24.25 28.3904 24.0146 27.5864 23.6616 26.9896C25.0925 26.7528 26.5497 26.296 27.7167 25.325C29.1528 24.1299 30.07 22.2254 30.07 19.25C30.07 17.5738 29.5291 16.1924 28.5932 15.075C28.8067 14.3853 29.0907 12.8838 28.338 11.0364L28.25 10.8204L28.028 10.749L27.875 11.225C28.028 10.749 28.0275 10.7488 28.027 10.7487L28.026 10.7484L28.0239 10.7477L28.0194 10.7463L28.0089 10.7432C28.0012 10.741 27.9922 10.7386 27.982 10.736C27.9614 10.7308 27.9358 10.7251 27.9049 10.7195C27.843 10.7082 27.7606 10.6974 27.6571 10.6925C27.4497 10.6827 27.1603 10.6964 26.7846 10.7749C26.0668 10.9249 25.0379 11.3101 23.6612 12.2134C22.4917 11.9104 21.2375 11.76 20 11.76C18.7625 11.76 17.5083 11.9104 16.3388 12.2134C14.9621 11.3101 13.9332 10.9249 13.2154 10.7749C12.8397 10.6964 12.5503 10.6827 12.3429 10.6925C12.2394 10.6974 12.157 10.7082 12.0951 10.7195C12.0642 10.7251 12.0386 10.7308 12.018 10.736C12.0078 10.7386 11.9988 10.741 11.9911 10.7432L11.9806 10.7463L11.9761 10.7477L11.974 10.7484L11.973 10.7487C11.9725 10.7488 11.972 10.749 12.125 11.225L11.972 10.749L11.75 10.8204L11.662 11.0364C10.9093 12.8838 11.1933 14.3853 11.4068 15.075C10.4709 16.1924 9.93 17.5738 9.93 19.25C9.93 22.2176 10.8431 24.1248 12.2721 25.3253Z" fill="black" stroke="black"/>
</svg>
