<svg width="110" height="31" viewBox="0 0 110 31" fill="none"
  xmlns="http://www.w3.org/2000/svg">
  <g style="mix-blend-mode:lighten">
    <mask id="path-1-outside-1_503_25" maskUnits="userSpaceOnUse" x="0" y="1" width="110" height="30" fill="black">
      <rect fill="white" y="1" width="110" height="30"/>
      <path fill-rule="evenodd" clip-rule="evenodd" d="M24.0985 8H21.1531V10.3923H24.0985V8ZM24.3511 12.543V23.9998H24.3217H21.1112L8.21046 12.5168V23.9998H5V8.26807H8.21046L21.1112 19.7511V12.5168H24.3217L24.3511 12.543ZM54.3888 8.26807L61.222 14.9569V23.9998H41.8709V8.26807H54.3888ZM57.9821 20.842V16.2488L53.0339 11.4259H45.0814V20.842H57.9821ZM79.5426 23.9998L73.4457 12.1723L68.9981 20.842H74.2998L75.9198 23.9998H63.7848L71.8552 8.26807H75.0656L83.1359 23.9998H79.5426ZM85.6489 11.6843L89.1539 8.26807H105V20.5836L101.495 23.9998H85.6489V11.6843ZM88.8888 12.9761V20.842H100.17L101.79 19.2917V11.4259H90.4793L88.8888 12.9761ZM38.4988 8.26807V23.9998H35.2588L27.2891 16.9059V12.6571L35.2588 19.7511V8.26807H38.4988Z"/>
    </mask>
    <path fill-rule="evenodd" clip-rule="evenodd" d="M24.0985 8H21.1531V10.3923H24.0985V8ZM24.3511 12.543V23.9998H24.3217H21.1112L8.21046 12.5168V23.9998H5V8.26807H8.21046L21.1112 19.7511V12.5168H24.3217L24.3511 12.543ZM54.3888 8.26807L61.222 14.9569V23.9998H41.8709V8.26807H54.3888ZM57.9821 20.842V16.2488L53.0339 11.4259H45.0814V20.842H57.9821ZM79.5426 23.9998L73.4457 12.1723L68.9981 20.842H74.2998L75.9198 23.9998H63.7848L71.8552 8.26807H75.0656L83.1359 23.9998H79.5426ZM85.6489 11.6843L89.1539 8.26807H105V20.5836L101.495 23.9998H85.6489V11.6843ZM88.8888 12.9761V20.842H100.17L101.79 19.2917V11.4259H90.4793L88.8888 12.9761ZM38.4988 8.26807V23.9998H35.2588L27.2891 16.9059V12.6571L35.2588 19.7511V8.26807H38.4988Z" fill="black"/>
    <path d="M21.1531 8V3H16.1531V8H21.1531ZM24.0985 8H29.0985V3H24.0985V8ZM21.1531 10.3923H16.1531V15.3923H21.1531V10.3923ZM24.0985 10.3923V15.3923H29.0985V10.3923H24.0985ZM24.3511 23.9998V28.9998H29.3511V23.9998H24.3511ZM24.3511 12.543H29.3511V10.2996L27.6754 8.80814L24.3511 12.543ZM21.1112 23.9998L17.7869 27.7346L19.2083 28.9998H21.1112V23.9998ZM8.21046 12.5168L11.5348 8.78198L3.21046 1.37245V12.5168H8.21046ZM8.21046 23.9998V28.9998H13.2105V23.9998H8.21046ZM5 23.9998H0V28.9998H5V23.9998ZM5 8.26807V3.26807H0V8.26807H5ZM8.21046 8.26807L11.5348 4.53327L10.1134 3.26807H8.21046V8.26807ZM21.1112 19.7511L17.7869 23.4859L26.1112 30.8954V19.7511H21.1112ZM21.1112 12.5168V7.51678H16.1112V12.5168H21.1112ZM24.3217 12.5168L27.646 8.78193L26.2246 7.51678H24.3217V12.5168ZM61.222 14.9569H66.222V12.8545L64.7196 11.3838L61.222 14.9569ZM54.3888 8.26807L57.8863 4.69497L56.4286 3.26807H54.3888V8.26807ZM61.222 23.9998V28.9998H66.222V23.9998H61.222ZM41.8709 23.9998H36.8709V28.9998H41.8709V23.9998ZM41.8709 8.26807V3.26807H36.8709V8.26807H41.8709ZM57.9821 16.2488H62.9821V14.14L61.472 12.6681L57.9821 16.2488ZM57.9821 20.842V25.842H62.9821V20.842H57.9821ZM53.0339 11.4259L56.5238 7.84529L55.0675 6.42589H53.0339V11.4259ZM45.0814 11.4259V6.42589H40.0814V11.4259H45.0814ZM45.0814 20.842H40.0814V25.842H45.0814V20.842ZM73.4457 12.1723L77.8899 9.88132L73.4349 1.23897L68.9969 9.89007L73.4457 12.1723ZM79.5426 23.9998L75.0983 26.2907L76.4948 28.9998H79.5426V23.9998ZM68.9981 20.842L64.5494 18.5597L60.8136 25.842H68.9981V20.842ZM74.2998 20.842L78.7486 18.5597L77.3544 15.842H74.2998V20.842ZM75.9198 23.9998V28.9998H84.1043L80.3685 21.7176L75.9198 23.9998ZM63.7848 23.9998L59.3361 21.7176L55.6003 28.9998H63.7848V23.9998ZM71.8552 8.26807V3.26807H68.8006L67.4064 5.98586L71.8552 8.26807ZM75.0656 8.26807L79.5144 5.98586L78.1202 3.26807H75.0656V8.26807ZM83.1359 23.9998V28.9998H91.3205L87.5847 21.7176L83.1359 23.9998ZM89.1539 8.26807V3.26807H87.1203L85.664 4.68746L89.1539 8.26807ZM85.6489 11.6843L82.159 8.10365L80.6489 9.57551V11.6843H85.6489ZM105 8.26807H110V3.26807H105V8.26807ZM105 20.5836L108.49 24.1642L110 22.6923V20.5836H105ZM101.495 23.9998V28.9998H103.529L104.985 27.5804L101.495 23.9998ZM85.6489 23.9998H80.6489V28.9998H85.6489V23.9998ZM88.8888 20.842H83.8888V25.842H88.8888V20.842ZM88.8888 12.9761L85.3989 9.39549L83.8888 10.8673V12.9761H88.8888ZM100.17 20.842V25.842H102.177L103.626 24.4544L100.17 20.842ZM101.79 19.2917L105.246 22.9042L106.79 21.4275V19.2917H101.79ZM101.79 11.4259H106.79V6.42589H101.79V11.4259ZM90.4793 11.4259V6.42589H88.4457L86.9894 7.84528L90.4793 11.4259ZM38.4988 23.9998V28.9998H43.4988V23.9998H38.4988ZM38.4988 8.26807H43.4988V3.26807H38.4988V8.26807ZM35.2588 23.9998L31.9345 27.7346L33.3559 28.9998H35.2588V23.9998ZM27.2891 16.9059H22.2891V19.1491L23.9647 20.6406L27.2891 16.9059ZM27.2891 12.6571L30.6134 8.92235L22.2891 1.51282V12.6571H27.2891ZM35.2588 19.7511L31.9345 23.4859L40.2588 30.8954V19.7511H35.2588ZM35.2588 8.26807V3.26807H30.2588V8.26807H35.2588ZM21.1531 13H24.0985V3H21.1531V13ZM26.1531 10.3923V8H16.1531V10.3923H26.1531ZM24.0985 5.39229H21.1531V15.3923H24.0985V5.39229ZM19.0985 8V10.3923H29.0985V8H19.0985ZM29.3511 23.9998V12.543H19.3511V23.9998H29.3511ZM24.3217 28.9998H24.3511V18.9998H24.3217V28.9998ZM21.1112 28.9998H24.3217V18.9998H21.1112V28.9998ZM4.88611 16.2516L17.7869 27.7346L24.4356 20.265L11.5348 8.78198L4.88611 16.2516ZM13.2105 23.9998V12.5168H3.21046V23.9998H13.2105ZM5 28.9998H8.21046V18.9998H5V28.9998ZM0 8.26807V23.9998H10V8.26807H0ZM8.21046 3.26807H5V13.2681H8.21046V3.26807ZM24.4356 16.0163L11.5348 4.53327L4.88611 12.0029L17.7869 23.4859L24.4356 16.0163ZM16.1112 12.5168V19.7511H26.1112V12.5168H16.1112ZM24.3217 7.51678H21.1112V17.5168H24.3217V7.51678ZM27.6754 8.80814L27.646 8.78193L20.9974 16.2516L21.0268 16.2778L27.6754 8.80814ZM64.7196 11.3838L57.8863 4.69497L50.8912 11.8412L57.7245 18.53L64.7196 11.3838ZM66.222 23.9998V14.9569H56.222V23.9998H66.222ZM41.8709 28.9998H61.222V18.9998H41.8709V28.9998ZM36.8709 8.26807V23.9998H46.8709V8.26807H36.8709ZM54.3888 3.26807H41.8709V13.2681H54.3888V3.26807ZM52.9821 16.2488V20.842H62.9821V16.2488H52.9821ZM49.544 15.0065L54.4922 19.8294L61.472 12.6681L56.5238 7.84529L49.544 15.0065ZM45.0814 16.4259H53.0339V6.42589H45.0814V16.4259ZM50.0814 20.842V11.4259H40.0814V20.842H50.0814ZM57.9821 15.842H45.0814V25.842H57.9821V15.842ZM69.0014 14.4632L75.0983 26.2907L83.9869 21.7088L77.8899 9.88132L69.0014 14.4632ZM73.4469 23.1242L77.8944 14.4545L68.9969 9.89007L64.5494 18.5597L73.4469 23.1242ZM74.2998 15.842H68.9981V25.842H74.2998V15.842ZM80.3685 21.7176L78.7486 18.5597L69.8511 23.1242L71.471 26.282L80.3685 21.7176ZM63.7848 28.9998H75.9198V18.9998H63.7848V28.9998ZM67.4064 5.98586L59.3361 21.7176L68.2336 26.282L76.3039 10.5503L67.4064 5.98586ZM75.0656 3.26807H71.8552V13.2681H75.0656V3.26807ZM87.5847 21.7176L79.5144 5.98586L70.6168 10.5503L78.6872 26.282L87.5847 21.7176ZM79.5426 28.9998H83.1359V18.9998H79.5426V28.9998ZM85.664 4.68746L82.159 8.10365L89.1387 15.2649L92.6438 11.8487L85.664 4.68746ZM105 3.26807H89.1539V13.2681H105V3.26807ZM110 20.5836V8.26807H100V20.5836H110ZM104.985 27.5804L108.49 24.1642L101.51 17.003L98.0051 20.4192L104.985 27.5804ZM85.6489 28.9998H101.495V18.9998H85.6489V28.9998ZM80.6489 11.6843V23.9998H90.6489V11.6843H80.6489ZM93.8888 20.842V12.9761H83.8888V20.842H93.8888ZM100.17 15.842H88.8888V25.842H100.17V15.842ZM98.3326 15.6793L96.7127 17.2295L103.626 24.4544L105.246 22.9042L98.3326 15.6793ZM96.7895 11.4259V19.2917H106.79V11.4259H96.7895ZM90.4793 16.4259H101.79V6.42589H90.4793V16.4259ZM92.3787 16.5567L93.9692 15.0065L86.9894 7.84528L85.3989 9.39549L92.3787 16.5567ZM43.4988 23.9998V8.26807H33.4988V23.9998H43.4988ZM35.2588 28.9998H38.4988V18.9998H35.2588V28.9998ZM23.9647 20.6406L31.9345 27.7346L38.5832 20.265L30.6134 13.1711L23.9647 20.6406ZM22.2891 12.6571V16.9059H32.2891V12.6571H22.2891ZM38.5832 16.0163L30.6134 8.92235L23.9647 16.3919L31.9345 23.4859L38.5832 16.0163ZM30.2588 8.26807V19.7511H40.2588V8.26807H30.2588ZM38.4988 3.26807H35.2588V13.2681H38.4988V3.26807Z" fill="url(#paint0_linear_503_25)" mask="url(#path-1-outside-1_503_25)"/>
  </g>
  <path d="M54.3888 8.26855L61.222 14.9574V24.0003H41.8709V8.26855H54.3888ZM57.9821 20.8424V16.2492L53.0339 11.4264H45.0814V20.8424H57.9821Z" fill="white"/>
  <path d="M79.5426 24.0003L73.4456 12.1728L68.9981 20.8424H74.2998L75.9198 24.0003H63.7848L71.8551 8.26855H75.0656L83.1359 24.0003H79.5426Z" fill="white"/>
  <path d="M89.1539 8.26855L85.6489 11.6847V24.0003H101.495L105 20.5841V8.26855H89.1539ZM88.8888 20.8424V12.9766L90.4793 11.4264H101.79V19.2922L100.17 20.8424H88.8888Z" fill="white"/>
  <path d="M24.3511 12.5435V24.0003H24.3217H21.1112L8.21046 12.5173V24.0003H5V8.26855H8.21046L21.1112 19.7516V12.5173H24.3217L24.3511 12.5435Z" fill="white"/>
  <path d="M38.4988 24.0003V8.26855H35.2588V19.7516L27.2891 12.6576V16.9063L35.2588 24.0003H38.4988Z" fill="white"/>
  <g filter="url(#filter0_f_503_25)">
    <rect x="21.2866" y="8" width="2.94538" height="2.39229" fill="#01FE01"/>
  </g>
  <g filter="url(#filter1_f_503_25)">
    <path d="M90.0591 14.6982V19.9613H95.9498V14.6982H90.0591Z" fill="#01FE01"/>
  </g>
  <g filter="url(#filter2_f_503_25)">
    <path d="M50.7874 17.5052L47.5147 14.6982H45.8784V17.5052V19.9613H50.7874V17.5052Z" fill="#01FE01"/>
  </g>
  <g filter="url(#filter3_f_503_25)">
    <rect x="21.2866" y="8" width="2.94538" height="2.39229" fill="#01FE01"/>
  </g>
  <g filter="url(#filter4_f_503_25)">
    <path d="M90.0591 14.6982V19.9613H95.9498V14.6982H90.0591Z" fill="#01FE01"/>
  </g>
  <g filter="url(#filter5_f_503_25)">
    <path d="M50.7874 17.5052L47.5147 14.6982H45.8784V17.5052V19.9613H50.7874V17.5052Z" fill="#01FE01"/>
  </g>
  <defs>
    <filter id="filter0_f_503_25" x="13.2866" y="0" width="18.9453" height="18.3926" filterUnits="userSpaceOnUse" color-interpolation-filters="sRGB">
      <feFlood flood-opacity="0" result="BackgroundImageFix"/>
      <feBlend mode="normal" in="SourceGraphic" in2="BackgroundImageFix" result="shape"/>
      <feGaussianBlur stdDeviation="4" result="effect1_foregroundBlur_503_25"/>
    </filter>
    <filter id="filter1_f_503_25" x="82.0591" y="6.69824" width="21.8906" height="21.2632" filterUnits="userSpaceOnUse" color-interpolation-filters="sRGB">
      <feFlood flood-opacity="0" result="BackgroundImageFix"/>
      <feBlend mode="normal" in="SourceGraphic" in2="BackgroundImageFix" result="shape"/>
      <feGaussianBlur stdDeviation="4" result="effect1_foregroundBlur_503_25"/>
    </filter>
    <filter id="filter2_f_503_25" x="37.8784" y="6.69824" width="20.9092" height="21.2632" filterUnits="userSpaceOnUse" color-interpolation-filters="sRGB">
      <feFlood flood-opacity="0" result="BackgroundImageFix"/>
      <feBlend mode="normal" in="SourceGraphic" in2="BackgroundImageFix" result="shape"/>
      <feGaussianBlur stdDeviation="4" result="effect1_foregroundBlur_503_25"/>
    </filter>
    <filter id="filter3_f_503_25" x="20.2866" y="7" width="4.94531" height="4.39258" filterUnits="userSpaceOnUse" color-interpolation-filters="sRGB">
      <feFlood flood-opacity="0" result="BackgroundImageFix"/>
      <feBlend mode="normal" in="SourceGraphic" in2="BackgroundImageFix" result="shape"/>
      <feGaussianBlur stdDeviation="0.5" result="effect1_foregroundBlur_503_25"/>
    </filter>
    <filter id="filter4_f_503_25" x="89.0591" y="13.6982" width="7.89062" height="7.26318" filterUnits="userSpaceOnUse" color-interpolation-filters="sRGB">
      <feFlood flood-opacity="0" result="BackgroundImageFix"/>
      <feBlend mode="normal" in="SourceGraphic" in2="BackgroundImageFix" result="shape"/>
      <feGaussianBlur stdDeviation="0.5" result="effect1_foregroundBlur_503_25"/>
    </filter>
    <filter id="filter5_f_503_25" x="44.8784" y="13.6982" width="6.90918" height="7.26318" filterUnits="userSpaceOnUse" color-interpolation-filters="sRGB">
      <feFlood flood-opacity="0" result="BackgroundImageFix"/>
      <feBlend mode="normal" in="SourceGraphic" in2="BackgroundImageFix" result="shape"/>
      <feGaussianBlur stdDeviation="0.5" result="effect1_foregroundBlur_503_25"/>
    </filter>
    <linearGradient id="paint0_linear_503_25" x1="75.8469" y1="-10.0965" x2="37.2812" y2="44.8142" gradientUnits="userSpaceOnUse">
      <stop stop-color="#115406" stop-opacity="0.96"/>
      <stop offset="0.75" stop-color="#770079"/>
      <stop offset="1" stop-color="#006B6C"/>
    </linearGradient>
  </defs>
</svg>
