<svg width="40" height="40" viewBox="0 0 40 40" fill="none"
  xmlns="http://www.w3.org/2000/svg">
  <mask id="path-1-inside-1_475_118" fill="white">
    <path fill-rule="evenodd" clip-rule="evenodd" d="M20 35C28.2843 35 35 28.2843 35 20C35 11.7157 28.2843 5 20 5C11.7157 5 5 11.7157 5 20C5 28.2843 11.7157 35 20 35ZM8.42487 18.6852L26.7164 11.0703C27.4127 10.7804 28.1322 11.4313 27.9792 12.2128L24.8563 28.1632C24.7097 28.9115 23.888 29.2478 23.311 28.7954L18.5957 25.0978L16.1925 27.7193C15.7708 28.1793 15.0422 27.9933 14.861 27.379L13.1264 21.4986L8.47821 20.0324C7.86832 19.8402 7.83232 18.9319 8.42487 18.6852ZM15.927 22.6366L24.4231 14.6101C24.6266 14.4178 24.3903 14.0788 24.1596 14.2315L14.1264 20.8793C13.9496 20.9964 13.8693 21.2262 13.9309 21.4382L15.277 26.0712C15.305 26.1686 15.4378 26.1552 15.4487 26.0537L15.7757 22.9472C15.7883 22.8273 15.8423 22.7165 15.927 22.6366Z"/>
  </mask>
  <path fill-rule="evenodd" clip-rule="evenodd" d="M20 35C28.2843 35 35 28.2843 35 20C35 11.7157 28.2843 5 20 5C11.7157 5 5 11.7157 5 20C5 28.2843 11.7157 35 20 35ZM8.42487 18.6852L26.7164 11.0703C27.4127 10.7804 28.1322 11.4313 27.9792 12.2128L24.8563 28.1632C24.7097 28.9115 23.888 29.2478 23.311 28.7954L18.5957 25.0978L16.1925 27.7193C15.7708 28.1793 15.0422 27.9933 14.861 27.379L13.1264 21.4986L8.47821 20.0324C7.86832 19.8402 7.83232 18.9319 8.42487 18.6852ZM15.927 22.6366L24.4231 14.6101C24.6266 14.4178 24.3903 14.0788 24.1596 14.2315L14.1264 20.8793C13.9496 20.9964 13.8693 21.2262 13.9309 21.4382L15.277 26.0712C15.305 26.1686 15.4378 26.1552 15.4487 26.0537L15.7757 22.9472C15.7883 22.8273 15.8423 22.7165 15.927 22.6366Z" fill="#01FE01" fill-opacity="0.5"/>
  <path d="M26.7164 11.0703L27.1007 11.9935L27.1008 11.9935L26.7164 11.0703ZM8.42487 18.6852L8.04054 17.762L8.04051 17.762L8.42487 18.6852ZM27.9792 12.2128L28.9606 12.4049L28.9606 12.4048L27.9792 12.2128ZM24.8563 28.1632L25.8376 28.3554L25.8377 28.3554L24.8563 28.1632ZM23.311 28.7954L22.6939 29.5823L22.694 29.5824L23.311 28.7954ZM18.5957 25.0978L19.2128 24.3109L18.4842 23.7396L17.8586 24.4221L18.5957 25.0978ZM16.1925 27.7193L16.9296 28.3951L16.9296 28.3951L16.1925 27.7193ZM14.861 27.379L15.8202 27.0962L15.8202 27.0961L14.861 27.379ZM13.1264 21.4986L14.0855 21.2157L13.9349 20.7051L13.4272 20.5449L13.1264 21.4986ZM8.47821 20.0324L8.77904 19.0787L8.77878 19.0787L8.47821 20.0324ZM24.4231 14.6101L25.1099 15.337L25.1101 15.3368L24.4231 14.6101ZM15.927 22.6366L16.6133 23.3639L16.6137 23.3635L15.927 22.6366ZM24.1596 14.2315L23.6074 13.3978L23.6073 13.3979L24.1596 14.2315ZM14.1264 20.8793L14.6787 21.713L14.6787 21.7129L14.1264 20.8793ZM13.9309 21.4382L12.9705 21.7169L12.9706 21.7172L13.9309 21.4382ZM15.277 26.0712L16.2378 25.7941L16.2372 25.7922L15.277 26.0712ZM15.4487 26.0537L16.443 26.1601L16.4432 26.1584L15.4487 26.0537ZM15.7757 22.9472L16.7702 23.0519L16.7703 23.0515L15.7757 22.9472ZM34 20C34 27.732 27.732 34 20 34V36C28.8366 36 36 28.8366 36 20H34ZM20 6C27.732 6 34 12.268 34 20H36C36 11.1634 28.8366 4 20 4V6ZM6 20C6 12.268 12.268 6 20 6V4C11.1634 4 4 11.1634 4 20H6ZM20 34C12.268 34 6 27.732 6 20H4C4 28.8366 11.1634 36 20 36V34ZM26.3321 10.1471L8.04054 17.762L8.8092 19.6084L27.1007 11.9935L26.3321 10.1471ZM28.9606 12.4048C29.2391 10.9818 27.8957 9.49606 26.332 10.1471L27.1008 11.9935C27.0975 11.9948 27.0883 11.998 27.0743 11.9994C27.0605 12.0007 27.0464 11.9999 27.0336 11.9973C27.0083 11.9923 26.9968 11.9826 26.9954 11.9813C26.994 11.9801 26.9963 11.9819 26.998 11.987C26.9989 11.9896 27.0021 11.9992 26.9979 12.0207L28.9606 12.4048ZM25.8377 28.3554L28.9606 12.4049L26.9979 12.0206L23.8749 27.9711L25.8377 28.3554ZM22.694 29.5824C23.9227 30.5457 25.5634 29.7553 25.8376 28.3554L23.8749 27.971C23.8699 27.9966 23.8624 28.0054 23.8618 28.0061C23.8601 28.0082 23.8608 28.0064 23.8664 28.0041C23.8721 28.0017 23.8843 27.9985 23.9013 28.0007C23.9097 28.0018 23.9172 28.0039 23.9231 28.0064C23.9291 28.0089 23.9306 28.0106 23.9279 28.0085L22.694 29.5824ZM17.9786 25.8847L22.6939 29.5823L23.928 28.0085L19.2128 24.3109L17.9786 25.8847ZM16.9296 28.3951L19.3328 25.7736L17.8586 24.4221L15.4554 27.0436L16.9296 28.3951ZM13.9019 27.6619C14.2857 28.9635 15.9412 29.4733 16.9296 28.3951L15.4554 27.0436C15.4724 27.025 15.5062 26.9998 15.5547 26.9858C15.6005 26.9726 15.6456 26.9733 15.6841 26.9832C15.7672 27.0044 15.8108 27.0643 15.8202 27.0962L13.9019 27.6619ZM12.1673 21.7815L13.9019 27.662L15.8202 27.0961L14.0855 21.2157L12.1673 21.7815ZM8.17739 20.9861L12.8256 22.4523L13.4272 20.5449L8.77904 19.0787L8.17739 20.9861ZM8.04051 17.762C7.28888 18.075 6.97686 18.7992 7.00141 19.4188C7.02596 20.0387 7.39586 20.7398 8.17765 20.9862L8.77878 19.0787C8.84906 19.1008 8.91259 19.1499 8.95293 19.2085C8.98862 19.2603 8.99855 19.3071 8.99984 19.3397C9.00113 19.3723 8.99487 19.418 8.96501 19.4701C8.93127 19.529 8.87473 19.5811 8.80922 19.6084L8.04051 17.762ZM23.7364 13.8832L15.2402 21.9097L16.6137 23.3635L25.1099 15.337L23.7364 13.8832ZM24.7118 15.0652C24.5443 15.1762 24.312 15.2283 24.0762 15.1673C23.8633 15.1122 23.7181 14.9842 23.6336 14.8629C23.4671 14.6239 23.4136 14.1883 23.7362 13.8833L25.1101 15.3368C25.6361 14.8396 25.5662 14.1383 25.2747 13.7198C25.1278 13.5089 24.8929 13.3128 24.5773 13.2311C24.2386 13.1434 23.8903 13.2104 23.6074 13.3978L24.7118 15.0652ZM14.6787 21.7129L24.712 15.0651L23.6073 13.3979L13.574 20.0457L14.6787 21.7129ZM14.8912 21.1595C14.9445 21.3432 14.8874 21.5747 14.6787 21.713L13.5741 20.0457C13.0119 20.4181 12.7941 21.1092 12.9705 21.7169L14.8912 21.1595ZM16.2372 25.7922L14.8911 21.1592L12.9706 21.7172L14.3167 26.3502L16.2372 25.7922ZM14.4543 25.9474C14.5013 25.5085 14.8558 25.184 15.2683 25.1422C15.686 25.0998 16.111 25.3545 16.2378 25.7941L14.3161 26.3484C14.471 26.8853 14.9764 27.1821 15.4702 27.1319C15.9589 27.0824 16.3852 26.7005 16.443 26.1601L14.4543 25.9474ZM14.7812 22.8425L14.4542 25.949L16.4432 26.1584L16.7702 23.0519L14.7812 22.8425ZM15.2406 21.9093C14.9757 22.1594 14.8178 22.494 14.7812 22.8429L16.7703 23.0515C16.7588 23.1606 16.7089 23.2737 16.6133 23.3639L15.2406 21.9093Z" fill="#01FE01" mask="url(#path-1-inside-1_475_118)"/>
</svg>
