<svg width="40" height="40" viewBox="0 0 40 40" fill="none"
  xmlns="http://www.w3.org/2000/svg">
  <mask id="path-1-inside-1_673_22244" fill="white">
    <path fill-rule="evenodd" clip-rule="evenodd" d="M20 35C28.2843 35 35 28.2843 35 20C35 11.7157 28.2843 5 20 5C11.7157 5 5 11.7157 5 20C5 28.2843 11.7157 35 20 35ZM8.42487 18.6852L26.7164 11.0703C27.4127 10.7804 28.1322 11.4313 27.9792 12.2128L24.8563 28.1632C24.7097 28.9115 23.888 29.2478 23.311 28.7954L18.5957 25.0978L16.1925 27.7193C15.7708 28.1793 15.0422 27.9933 14.861 27.379L13.1264 21.4986L8.47821 20.0324C7.86832 19.8402 7.83232 18.9319 8.42487 18.6852ZM15.927 22.6366L24.4231 14.6101C24.6266 14.4178 24.3903 14.0788 24.1596 14.2315L14.1264 20.8793C13.9496 20.9964 13.8693 21.2262 13.9309 21.4382L15.277 26.0712C15.305 26.1686 15.4378 26.1552 15.4487 26.0537L15.7757 22.9472C15.7883 22.8273 15.8423 22.7165 15.927 22.6366Z"/>
  </mask>
  <path fill-rule="evenodd" clip-rule="evenodd" d="M20 35C28.2843 35 35 28.2843 35 20C35 11.7157 28.2843 5 20 5C11.7157 5 5 11.7157 5 20C5 28.2843 11.7157 35 20 35ZM8.42487 18.6852L26.7164 11.0703C27.4127 10.7804 28.1322 11.4313 27.9792 12.2128L24.8563 28.1632C24.7097 28.9115 23.888 29.2478 23.311 28.7954L18.5957 25.0978L16.1925 27.7193C15.7708 28.1793 15.0422 27.9933 14.861 27.379L13.1264 21.4986L8.47821 20.0324C7.86832 19.8402 7.83232 18.9319 8.42487 18.6852ZM15.927 22.6366L24.4231 14.6101C24.6266 14.4178 24.3903 14.0788 24.1596 14.2315L14.1264 20.8793C13.9496 20.9964 13.8693 21.2262 13.9309 21.4382L15.277 26.0712C15.305 26.1686 15.4378 26.1552 15.4487 26.0537L15.7757 22.9472C15.7883 22.8273 15.8423 22.7165 15.927 22.6366Z" fill="black"/>
</svg>
