<svg width="40" height="40" viewBox="0 0 40 40" fill="none"
  xmlns="http://www.w3.org/2000/svg">
  <mask id="path-1-inside-1_673_22250" fill="white">
    <path fill-rule="evenodd" clip-rule="evenodd" d="M20 35C28.2843 35 35 28.2843 35 20C35 11.7157 28.2843 5 20 5C11.7157 5 5 11.7157 5 20C5 28.2843 11.7157 35 20 35ZM26.7617 15.5297C27.5496 15.4327 28.3011 15.3226 29 15C28.4774 15.8112 27.8162 16.4167 27.0554 16.9857C27.0629 17.1583 27.0666 17.3331 27.0666 17.5082C27.0666 22.8457 23.1453 29 15.9758 29C13.7752 29 11.7262 28.1455 10 27C10.014 27.0016 10.0353 27.0045 10.0633 27.0083C10.6443 27.0867 14.1139 27.5549 15.7 25.6666C13.9948 25.6338 12.6255 24.3122 12.1301 22.707C12.3682 22.7553 12.6119 22.7809 12.8636 22.7809C13.2192 22.7809 13.5631 22.7311 13.8909 22.639C12.1072 22.2669 10.7638 20.6344 10.7638 18.6781V18.627C11.2889 18.9294 11.8907 19.112 12.5302 19.1325C11.4837 18.4076 10.7948 17.1716 10.7948 15.7709C10.7948 15.0297 10.932 14.2631 11.2667 13.6667C13.1889 16.1101 16.1181 17.7913 19.3578 17.96C19.2903 17.6638 19.2557 17.3554 19.2557 17.0394C19.2557 14.8089 21.0023 13 23.1553 13C24.2747 13 25.2884 13.4909 26.0002 14.2761C26.249 14.2253 26.4851 14.1914 26.7127 14.1588C27.2969 14.075 27.825 13.9993 28.3667 13.6667C27.8754 14.664 27.5397 14.9245 26.9859 15.3543C26.915 15.4094 26.8406 15.4672 26.7617 15.5297Z"/>
  </mask>
  <path fill-rule="evenodd" clip-rule="evenodd" d="M20 35C28.2843 35 35 28.2843 35 20C35 11.7157 28.2843 5 20 5C11.7157 5 5 11.7157 5 20C5 28.2843 11.7157 35 20 35ZM26.7617 15.5297C27.5496 15.4327 28.3011 15.3226 29 15C28.4774 15.8112 27.8162 16.4167 27.0554 16.9857C27.0629 17.1583 27.0666 17.3331 27.0666 17.5082C27.0666 22.8457 23.1453 29 15.9758 29C13.7752 29 11.7262 28.1455 10 27C10.014 27.0016 10.0353 27.0045 10.0633 27.0083C10.6443 27.0867 14.1139 27.5549 15.7 25.6666C13.9948 25.6338 12.6255 24.3122 12.1301 22.707C12.3682 22.7553 12.6119 22.7809 12.8636 22.7809C13.2192 22.7809 13.5631 22.7311 13.8909 22.639C12.1072 22.2669 10.7638 20.6344 10.7638 18.6781V18.627C11.2889 18.9294 11.8907 19.112 12.5302 19.1325C11.4837 18.4076 10.7948 17.1716 10.7948 15.7709C10.7948 15.0297 10.932 14.2631 11.2667 13.6667C13.1889 16.1101 16.1181 17.7913 19.3578 17.96C19.2903 17.6638 19.2557 17.3554 19.2557 17.0394C19.2557 14.8089 21.0023 13 23.1553 13C24.2747 13 25.2884 13.4909 26.0002 14.2761C26.249 14.2253 26.4851 14.1914 26.7127 14.1588C27.2969 14.075 27.825 13.9993 28.3667 13.6667C27.8754 14.664 27.5397 14.9245 26.9859 15.3543C26.915 15.4094 26.8406 15.4672 26.7617 15.5297Z" fill="black"/>
</svg>
