<svg width="40" height="40" viewBox="0 0 40 40" fill="none"
  xmlns="http://www.w3.org/2000/svg">
  <mask id="path-1-inside-1_673_22250" fill="white">
    <path fill-rule="evenodd" clip-rule="evenodd" d="M20 35C28.2843 35 35 28.2843 35 20C35 11.7157 28.2843 5 20 5C11.7157 5 5 11.7157 5 20C5 28.2843 11.7157 35 20 35ZM26.7617 15.5297C27.5496 15.4327 28.3011 15.3226 29 15C28.4774 15.8112 27.8162 16.4167 27.0554 16.9857C27.0629 17.1583 27.0666 17.3331 27.0666 17.5082C27.0666 22.8457 23.1453 29 15.9758 29C13.7752 29 11.7262 28.1455 10 27C10.014 27.0016 10.0353 27.0045 10.0633 27.0083C10.6443 27.0867 14.1139 27.5549 15.7 25.6666C13.9948 25.6338 12.6255 24.3122 12.1301 22.707C12.3682 22.7553 12.6119 22.7809 12.8636 22.7809C13.2192 22.7809 13.5631 22.7311 13.8909 22.639C12.1072 22.2669 10.7638 20.6344 10.7638 18.6781V18.627C11.2889 18.9294 11.8907 19.112 12.5302 19.1325C11.4837 18.4076 10.7948 17.1716 10.7948 15.7709C10.7948 15.0297 10.932 14.2631 11.2667 13.6667C13.1889 16.1101 16.1181 17.7913 19.3578 17.96C19.2903 17.6638 19.2557 17.3554 19.2557 17.0394C19.2557 14.8089 21.0023 13 23.1553 13C24.2747 13 25.2884 13.4909 26.0002 14.2761C26.249 14.2253 26.4851 14.1914 26.7127 14.1588C27.2969 14.075 27.825 13.9993 28.3667 13.6667C27.8754 14.664 27.5397 14.9245 26.9859 15.3543C26.915 15.4094 26.8406 15.4672 26.7617 15.5297Z"/>
  </mask>
  <path fill-rule="evenodd" clip-rule="evenodd" d="M20 35C28.2843 35 35 28.2843 35 20C35 11.7157 28.2843 5 20 5C11.7157 5 5 11.7157 5 20C5 28.2843 11.7157 35 20 35ZM26.7617 15.5297C27.5496 15.4327 28.3011 15.3226 29 15C28.4774 15.8112 27.8162 16.4167 27.0554 16.9857C27.0629 17.1583 27.0666 17.3331 27.0666 17.5082C27.0666 22.8457 23.1453 29 15.9758 29C13.7752 29 11.7262 28.1455 10 27C10.014 27.0016 10.0353 27.0045 10.0633 27.0083C10.6443 27.0867 14.1139 27.5549 15.7 25.6666C13.9948 25.6338 12.6255 24.3122 12.1301 22.707C12.3682 22.7553 12.6119 22.7809 12.8636 22.7809C13.2192 22.7809 13.5631 22.7311 13.8909 22.639C12.1072 22.2669 10.7638 20.6344 10.7638 18.6781V18.627C11.2889 18.9294 11.8907 19.112 12.5302 19.1325C11.4837 18.4076 10.7948 17.1716 10.7948 15.7709C10.7948 15.0297 10.932 14.2631 11.2667 13.6667C13.1889 16.1101 16.1181 17.7913 19.3578 17.96C19.2903 17.6638 19.2557 17.3554 19.2557 17.0394C19.2557 14.8089 21.0023 13 23.1553 13C24.2747 13 25.2884 13.4909 26.0002 14.2761C26.249 14.2253 26.4851 14.1914 26.7127 14.1588C27.2969 14.075 27.825 13.9993 28.3667 13.6667C27.8754 14.664 27.5397 14.9245 26.9859 15.3543C26.915 15.4094 26.8406 15.4672 26.7617 15.5297Z" fill="black"/>
  <path d="M29 15L29.8407 15.5416L31.7029 12.6509L28.5809 14.0921L29 15ZM26.7617 15.5297L26.1406 14.746L23.3506 16.9572L26.8839 16.5222L26.7617 15.5297ZM27.0554 16.9857L26.4565 16.1849L26.0337 16.5012L26.0564 17.0287L27.0554 16.9857ZM10 27L10.1173 26.0069L9.44706 27.8332L10 27ZM10.0633 27.0083L9.92958 27.9993L9.9296 27.9993L10.0633 27.0083ZM15.7 25.6666L16.4657 26.3098L17.8119 24.7071L15.7192 24.6668L15.7 25.6666ZM12.1301 22.707L12.3287 21.727L10.6778 21.3925L11.1746 23.0019L12.1301 22.707ZM13.8909 22.639L14.1615 23.6017L14.0951 21.6601L13.8909 22.639ZM10.7638 18.627L11.2628 17.7604L9.7638 16.8972V18.627H10.7638ZM12.5302 19.1325L12.4982 20.132L15.8864 20.2407L13.0996 18.3104L12.5302 19.1325ZM11.2667 13.6667L12.0526 13.0484L11.1271 11.8719L10.3946 13.1773L11.2667 13.6667ZM19.3578 17.96L19.3058 18.9587L20.6264 19.0274L20.3328 17.738L19.3578 17.96ZM26.0002 14.2761L25.2594 14.9477L25.642 15.3698L26.2002 15.2559L26.0002 14.2761ZM26.7127 14.1588L26.8547 15.1487H26.8547L26.7127 14.1588ZM28.3667 13.6667L29.2638 14.1086L30.7938 11.0027L27.8434 12.8145L28.3667 13.6667ZM26.9859 15.3543L27.5991 16.1443L27.5991 16.1443L26.9859 15.3543ZM34 20C34 27.732 27.732 34 20 34V36C28.8366 36 36 28.8366 36 20H34ZM20 6C27.732 6 34 12.268 34 20H36C36 11.1634 28.8366 4 20 4V6ZM6 20C6 12.268 12.268 6 20 6V4C11.1634 4 4 11.1634 4 20H6ZM20 34C12.268 34 6 27.732 6 20H4C4 28.8366 11.1634 36 20 36V34ZM28.5809 14.0921C28.0403 14.3416 27.433 14.4395 26.6395 14.5372L26.8839 16.5222C27.6662 16.4259 28.562 16.3036 29.4191 15.9079L28.5809 14.0921ZM27.6544 17.7865C28.4653 17.18 29.2288 16.4913 29.8407 15.5416L28.1593 14.4584C27.726 15.131 27.1671 15.6534 26.4565 16.1849L27.6544 17.7865ZM28.0666 17.5082C28.0666 17.319 28.0626 17.1299 28.0545 16.9427L26.0564 17.0287C26.0632 17.1867 26.0666 17.3472 26.0666 17.5082H28.0666ZM15.9758 30C23.8431 30 28.0666 23.2403 28.0666 17.5082H26.0666C26.0666 22.4511 22.4475 28 15.9758 28V30ZM9.44706 27.8332C11.276 29.0469 13.5161 30 15.9758 30V28C14.0344 28 12.1764 27.2441 10.5529 26.1667L9.44706 27.8332ZM10.1971 26.0173C10.1733 26.0141 10.1417 26.0098 10.1173 26.0069L9.88267 27.9931C9.88265 27.9931 9.88597 27.9935 9.89542 27.9947C9.90434 27.9959 9.91517 27.9973 9.92958 27.9993L10.1971 26.0173ZM14.9343 25.0234C14.3961 25.6642 13.4604 25.9787 12.4093 26.0795C11.3911 26.1772 10.4731 26.0545 10.1971 26.0173L9.9296 27.9993C10.2345 28.0404 11.3419 28.1911 12.6002 28.0704C13.8257 27.9528 15.4179 27.5573 16.4657 26.3098L14.9343 25.0234ZM11.1746 23.0019C11.7623 24.9063 13.4363 26.6232 15.6808 26.6664L15.7192 24.6668C14.5533 24.6444 13.4887 23.7181 13.0856 22.4121L11.1746 23.0019ZM12.8636 21.7809C12.6806 21.7809 12.5034 21.7624 12.3287 21.727L11.9315 23.6871C12.2329 23.7482 12.5432 23.7809 12.8636 23.7809V21.7809ZM13.6203 21.6763C13.378 21.7444 13.1252 21.7809 12.8636 21.7809V23.7809C13.3133 23.7809 13.7481 23.7179 14.1615 23.6017L13.6203 21.6763ZM9.7638 18.6781C9.7638 21.0937 11.4255 23.1462 13.6867 23.6179L14.0951 21.6601C12.7888 21.3876 11.7638 20.1752 11.7638 18.6781H9.7638ZM9.7638 18.627V18.6781H11.7638V18.627H9.7638ZM12.5623 18.133C12.0945 18.118 11.6522 17.9846 11.2628 17.7604L10.2648 19.4936C10.9256 19.8741 11.6869 20.106 12.4982 20.132L12.5623 18.133ZM9.79477 15.7709C9.79477 17.5038 10.648 19.0453 11.9608 19.9546L13.0996 18.3104C12.3194 17.77 11.7948 16.8394 11.7948 15.7709H9.79477ZM10.3946 13.1773C9.94745 13.9742 9.79477 14.9282 9.79477 15.7709H11.7948C11.7948 15.1311 11.9166 14.552 12.1388 14.156L10.3946 13.1773ZM19.4098 16.9614C16.4849 16.8091 13.8138 15.287 12.0526 13.0484L10.4807 14.285C12.564 16.9331 15.7513 18.7736 19.3058 18.9587L19.4098 16.9614ZM18.2557 17.0394C18.2557 17.4286 18.2983 17.8115 18.3827 18.182L20.3328 17.738C20.2823 17.5161 20.2557 17.2823 20.2557 17.0394H18.2557ZM23.1553 12C20.4172 12 18.2557 14.2901 18.2557 17.0394H20.2557C20.2557 15.3278 21.5874 14 23.1553 14V12ZM26.7411 13.6044C25.8519 12.6236 24.5745 12 23.1553 12V14C23.9749 14 24.725 14.3583 25.2594 14.9477L26.7411 13.6044ZM26.5708 13.1689C26.3464 13.2011 26.0821 13.2387 25.8003 13.2963L26.2002 15.2559C26.4158 15.2119 26.6238 15.1818 26.8547 15.1487L26.5708 13.1689ZM27.8434 12.8145C27.501 13.0248 27.171 13.0828 26.5708 13.1689L26.8547 15.1487C27.4227 15.0672 28.1491 14.9738 28.89 14.5188L27.8434 12.8145ZM27.5991 16.1443C27.8668 15.9365 28.1636 15.7095 28.4501 15.3844C28.7414 15.0537 28.9937 14.6568 29.2638 14.1086L27.4696 13.2248C27.2484 13.6738 27.0872 13.9059 26.9494 14.0623C26.8067 14.2242 26.6588 14.3424 26.3728 14.5644L27.5991 16.1443ZM27.3828 16.3134C27.4571 16.2545 27.5277 16.1997 27.5991 16.1443L26.3728 14.5644C26.3023 14.6191 26.224 14.6799 26.1406 14.746L27.3828 16.3134Z" fill="black" mask="url(#path-1-inside-1_673_22250)"/>
</svg>
