<?xml version="1.0" standalone="no"?>
<!DOCTYPE svg PUBLIC "-//W3C//DTD SVG 20010904//EN"
 "http://www.w3.org/TR/2001/REC-SVG-20010904/DTD/svg10.dtd">
<svg version="1.0" xmlns="http://www.w3.org/2000/svg"
 width="260.000000pt" height="260.000000pt" viewBox="0 0 260.000000 260.000000"
 preserveAspectRatio="xMidYMid meet">
<metadata>
Created by potrace 1.14, written by Peter Selinger 2001-2017
</metadata>
<g transform="translate(0.000000,260.000000) scale(0.100000,-0.100000)"
fill="#000000" stroke="none">
<path d="M200 1491 l0 -908 49 -51 c28 -27 52 -47 55 -44 4 3 6 -2 6 -10 0 -9
7 -19 16 -22 8 -3 13 -10 10 -14 -3 -5 6 -15 19 -22 14 -7 25 -16 25 -20 0 -3
20 -27 44 -52 24 -26 42 -49 38 -52 -3 -3 2 -6 10 -6 9 0 18 -4 20 -9 2 -5 25
-35 52 -65 l49 -56 901 0 c496 0 895 4 888 9 -8 4 -14 12 -15 17 -1 5 -6 8
-10 6 -5 -1 -6 2 -2 8 3 5 1 10 -5 10 -6 0 -8 5 -5 10 3 6 1 10 -4 10 -6 0
-11 7 -11 16 0 8 -4 13 -9 10 -8 -6 -23 16 -26 39 0 6 -7 9 -14 7 -7 -1 -9 2
-6 8 5 8 13 6 26 -6 10 -9 16 -20 14 -25 -3 -4 4 -10 15 -14 11 -4 18 -10 16
-13 -2 -4 9 -23 24 -42 l29 -35 1 878 c0 583 -3 877 -10 877 -5 0 -10 7 -10
16 0 8 -4 12 -10 9 -5 -3 -7 0 -4 8 3 8 -2 17 -11 21 -9 3 -15 12 -13 19 4 15
-37 69 -46 60 -3 -3 -6 2 -6 13 0 11 -9 26 -19 34 -11 7 -18 17 -15 22 3 5 -5
17 -18 28 -13 11 -19 19 -15 20 4 0 -2 10 -13 22 -11 12 -18 28 -16 35 3 7 0
12 -7 10 -7 -1 -11 4 -9 11 1 6 -5 12 -14 12 -10 0 -14 5 -10 16 3 8 2 12 -4
9 -9 -6 -12 2 -9 22 0 3 -6 10 -15 15 -9 5 -16 16 -16 23 0 8 -5 15 -11 15 -8
0 -8 5 1 15 11 13 -95 15 -944 15 l-956 0 0 -909z m1910 -938 c0 5 5 5 10 2 6
-4 8 -11 4 -16 -7 -12 -34 8 -34 25 0 6 5 4 10 -4 5 -8 10 -11 10 -7z m60 -80
c0 -4 -5 0 -11 10 -6 9 -14 15 -20 12 -5 -4 -9 4 -9 16 0 21 0 21 20 -4 11
-14 20 -29 20 -34z m55 -56 c4 4 5 2 1 -5 -4 -7 -1 -15 8 -18 9 -3 16 -12 16
-20 0 -7 10 -20 22 -28 12 -9 17 -16 10 -16 -6 0 -15 0 -19 0 -5 0 -8 5 -8 10
0 6 -6 14 -13 19 -8 5 -12 10 -10 12 3 5 -14 27 -46 59 -10 10 -15 24 -11 31
6 8 13 2 24 -20 9 -17 21 -28 26 -24z"/>
</g>
</svg>
