<?xml version="1.0" standalone="no"?>
<!DOCTYPE svg PUBLIC "-//W3C//DTD SVG 20010904//EN"
 "http://www.w3.org/TR/2001/REC-SVG-20010904/DTD/svg10.dtd">
<svg version="1.0" xmlns="http://www.w3.org/2000/svg"
 width="512.000000pt" height="512.000000pt" viewBox="0 0 512.000000 512.000000"
 preserveAspectRatio="xMidYMid meet">
<metadata>
Created by potrace 1.14, written by Peter Selinger 2001-2017
</metadata>
<g transform="translate(0.000000,512.000000) scale(0.100000,-0.100000)"
fill="#000000" stroke="none">
<path d="M0 2560 l0 -2560 2560 0 2560 0 0 2560 0 2560 -2560 0 -2560 0 0
-2560z m3285 2288 c37 -17 47 -77 31 -203 -15 -124 -37 -148 -142 -155 l-74
-5 -5 -126 c-2 -69 -7 -133 -10 -141 -10 -26 -47 -37 -140 -42 -92 -5 -125
-12 -125 -26 0 -5 9 -12 21 -15 11 -4 25 -18 30 -32 13 -34 10 -172 -4 -198
-6 -11 -10 -23 -9 -27 1 -5 -5 -8 -13 -8 -8 0 -15 -4 -15 -9 0 -5 -115 -9
-255 -10 -171 -1 -255 2 -255 9 0 5 -7 10 -15 10 -8 0 -19 10 -26 22 -16 29
-23 184 -9 193 6 3 8 10 5 14 -8 14 49 56 73 55 12 -1 20 1 17 4 -6 6 -31 9
-156 16 -102 6 -136 18 -148 48 -15 42 -13 172 3 203 31 59 25 65 -66 65 -111
0 -143 19 -154 87 -5 26 -8 59 -8 73 1 58 17 176 26 193 8 16 51 17 703 17
504 0 702 -4 720 -12z m-1770 -198 c62 -49 155 -161 156 -188 0 -10 2 -26 4
-38 3 -15 -11 -38 -50 -78 -30 -31 -55 -60 -55 -63 0 -3 43 -47 96 -98 82 -79
94 -95 90 -118 -6 -34 -34 -73 -83 -119 -21 -19 -39 -41 -41 -49 -2 -8 -12
-21 -22 -31 -27 -22 -25 -31 3 -15 12 7 29 12 37 11 8 -1 20 -2 26 -3 6 0 20
-9 31 -18 12 -10 34 -28 49 -40 16 -13 25 -23 21 -23 -4 0 6 -12 22 -28 26
-24 35 -51 32 -90 -1 -8 -79 -93 -175 -189 -163 -165 -176 -176 -214 -179 -37
-2 -45 2 -89 45 -79 78 -95 102 -91 133 4 25 2 27 -21 22 -14 -3 -35 -16 -46
-27 -53 -57 -113 -97 -145 -97 -34 0 -80 39 -168 144 -30 37 -34 39 -57 26
-14 -7 -25 -17 -25 -21 0 -4 -22 -23 -48 -43 -52 -38 -72 -39 -116 -11 -14 10
-26 15 -26 12 0 -3 -30 23 -66 57 -81 75 -109 118 -95 143 19 35 997 1003
1012 1003 9 0 33 -14 54 -30z m2237 -14 c322 -327 398 -409 398 -429 0 -21
-60 -118 -94 -152 -9 -9 -16 -20 -16 -25 0 -4 -13 -13 -29 -18 -16 -6 -35 -20
-41 -31 -6 -12 -15 -19 -21 -16 -17 11 -9 -22 11 -40 19 -17 20 -17 29 6 13
36 111 133 148 148 17 7 47 14 65 16 18 2 41 6 50 10 13 5 69 -45 233 -207
198 -196 215 -216 215 -248 0 -27 -9 -44 -47 -82 -26 -26 -52 -48 -58 -48 -6
0 -24 -14 -40 -30 -16 -17 -34 -29 -41 -26 -6 2 -15 1 -20 -4 -9 -8 -38 -13
-60 -11 -11 1 -37 21 -79 58 -51 47 -66 57 -60 42 7 -19 -138 -161 -181 -176
-41 -15 -81 3 -124 56 -19 22 -43 44 -52 47 -10 3 -28 15 -38 27 -11 11 -20
16 -20 10 0 -7 7 -19 16 -27 14 -15 14 -18 -5 -43 -11 -16 -46 -54 -79 -86
-47 -46 -67 -60 -98 -63 -36 -5 -43 -1 -102 53 -70 65 -87 103 -67 149 15 36
48 74 64 74 6 0 11 7 11 15 0 8 6 15 14 15 8 0 17 7 20 16 5 14 16 16 56 11
59 -7 63 2 22 50 -33 38 -73 54 -66 26 3 -11 -5 -28 -20 -42 -14 -14 -26 -30
-26 -37 0 -21 -77 -91 -114 -104 -43 -14 -56 -8 -130 62 -41 39 -57 64 -64 94
-9 41 -9 42 43 95 93 96 118 112 141 89 7 -7 16 -6 28 3 16 12 11 19 -58 87
-41 41 -74 77 -74 80 1 3 -2 13 -7 23 -5 11 -2 29 6 45 18 34 97 112 114 112
8 0 15 4 17 8 2 5 20 15 41 23 l38 15 -38 44 c-21 25 -48 54 -60 66 -13 11
-24 30 -26 40 -1 10 -6 24 -10 31 -4 6 -3 14 3 18 5 3 10 15 10 27 0 34 181
188 221 188 9 0 32 -15 51 -34z m-3186 -1361 c35 -12 66 -35 49 -35 -6 0 -4
-4 3 -9 9 -5 14 -36 16 -97 l2 -89 29 3 c16 2 39 8 51 12 37 15 162 14 179 0
8 -7 15 -9 15 -4 0 5 9 -2 20 -16 16 -20 20 -41 20 -115 0 -49 4 -94 8 -100 9
-13 35 -18 27 -5 -3 5 0 10 8 10 8 0 20 7 28 16 11 13 30 15 108 12 59 -2 96
-8 98 -15 3 -7 11 -9 18 -7 9 4 17 -4 22 -23 9 -33 9 -477 0 -514 -10 -38 -46
-52 -134 -52 -128 1 -127 1 -146 34 -10 18 -20 29 -23 27 -2 -3 -7 -36 -11
-74 -3 -38 -7 -80 -8 -94 -1 -14 -3 -36 -3 -50 -3 -44 -35 -54 -177 -60 l-130
-5 -2 -72 c-2 -72 -20 -113 -49 -113 -7 0 -14 -4 -16 -10 -4 -14 -99 -30 -174
-30 -73 0 -112 15 -120 44 -2 12 -3 156 -2 320 l3 299 30 18 c81 48 109 59
144 59 21 0 44 6 50 14 9 11 4 13 -31 12 -43 -2 -162 28 -185 47 -19 14 -19
642 0 654 35 22 226 28 283 8z m4279 -5 c17 -6 24 -19 28 -47 3 -21 5 -340 4
-710 -2 -633 -3 -673 -20 -690 -15 -16 -34 -18 -134 -16 -64 2 -121 7 -127 13
-5 5 -17 10 -26 10 -35 0 -53 37 -58 119 l-4 78 -110 -1 c-60 -1 -112 1 -115
4 -2 3 -10 5 -16 6 -58 6 -69 26 -71 134 l-1 75 -120 0 c-203 1 -196 -4 -202
131 -5 96 -4 102 21 131 19 22 34 30 61 31 20 1 40 4 45 7 6 4 10 3 10 -2 0
-4 23 -9 51 -10 40 -2 57 -8 86 -33 l35 -31 34 34 c34 33 36 34 112 32 85 -3
142 -19 142 -41 0 -8 9 -14 20 -14 17 0 20 7 20 50 0 33 -4 50 -12 51 -26 2
-63 -3 -73 -10 -15 -12 -164 -11 -170 0 -4 5 -10 7 -14 5 -4 -3 -17 3 -29 14
-17 17 -22 17 -32 5 -7 -8 -23 -15 -36 -15 -12 0 -25 -3 -27 -8 -8 -11 -184
-14 -206 -3 -27 15 -38 54 -40 148 -2 76 0 85 23 109 23 25 31 27 110 29 85 1
146 -13 146 -35 0 -5 6 -10 14 -10 20 0 29 32 32 111 4 129 21 149 127 149 44
0 96 -7 128 -18 l55 -18 2 86 c3 106 14 137 53 145 16 4 29 11 29 16 0 11 222
2 255 -11z m-3322 -1512 c77 -72 93 -108 69 -157 -8 -18 -23 -36 -34 -42 -10
-5 -16 -14 -13 -20 4 -5 -1 -9 -10 -9 -11 0 -15 -5 -11 -16 3 -8 2 -12 -3 -9
-5 3 -12 1 -16 -5 -12 -19 -84 -50 -100 -43 -31 11 38 -74 73 -91 32 -16 33
-16 22 5 -15 27 -10 80 10 100 8 8 24 27 34 42 11 14 23 24 28 21 4 -3 8 2 8
10 0 20 51 44 89 41 25 -2 47 -18 97 -69 90 -93 89 -110 -13 -217 -61 -64 -82
-80 -100 -76 -15 3 -23 -1 -23 -9 0 -8 5 -14 10 -14 6 0 10 -6 10 -14 0 -8 7
-16 15 -20 8 -3 15 -12 15 -20 0 -8 9 -17 19 -21 11 -3 26 -19 33 -35 7 -17
17 -30 21 -30 5 0 6 -13 3 -30 -5 -36 -43 -86 -120 -158 -31 -29 -56 -57 -56
-61 0 -4 11 -20 25 -35 14 -15 25 -31 25 -37 0 -5 7 -9 15 -9 19 0 41 -78 26
-93 -6 -6 -11 -18 -11 -27 0 -9 -13 -29 -30 -45 -16 -16 -30 -34 -30 -41 0 -6
-22 -32 -50 -58 -60 -56 -86 -59 -137 -12 -70 63 -935 931 -949 951 -11 18 -9
27 24 80 74 122 174 190 233 160 40 -21 130 -110 121 -121 -4 -4 2 -2 12 6 11
8 25 30 33 49 21 49 115 150 142 153 9 0 23 2 31 2 23 3 61 -23 117 -80 66
-67 88 -73 88 -22 1 43 22 88 42 88 7 0 13 5 13 11 0 12 50 63 50 51 0 -4 4
-2 8 4 10 15 44 33 62 34 9 0 46 -28 83 -62z m2238 34 c42 -28 90 -84 111
-129 26 -54 45 -61 78 -26 85 88 132 114 171 91 27 -16 119 -105 119 -115 0
-5 14 -23 30 -40 l29 -33 52 50 c96 92 139 85 265 -38 82 -79 93 -102 69 -138
-17 -27 -420 -427 -435 -432 -9 -3 -69 22 -133 55 -22 12 -32 12 -40 3 -9 -9
-8 -14 4 -23 9 -7 19 -27 22 -46 4 -19 14 -42 23 -52 9 -10 14 -27 12 -38 -2
-12 -99 -118 -217 -236 -181 -183 -218 -215 -243 -215 -24 0 -46 17 -115 87
-69 71 -86 94 -90 125 -7 50 3 85 27 93 11 3 20 12 20 18 0 7 14 25 30 40 30
29 38 47 21 47 -9 0 -48 32 -109 90 -103 98 -103 113 2 220 48 48 49 71 7 92
-49 25 -145 113 -157 146 -6 15 -8 36 -5 46 9 25 144 174 158 175 7 1 16 7 20
15 11 20 124 138 158 164 33 26 81 28 116 4z m-1236 -552 c32 -26 42 -63 39
-144 -2 -44 -8 -84 -14 -90 -5 -5 -10 -20 -10 -33 0 -13 -7 -26 -15 -29 -19
-8 -20 -24 -1 -24 41 0 51 -162 16 -255 -6 -15 -8 -31 -4 -36 3 -5 -2 -12 -11
-15 -14 -6 -14 -8 2 -20 10 -7 14 -14 9 -14 -5 0 -4 -6 1 -12 11 -13 28 -86
24 -102 -1 -4 -3 -28 -4 -52 -1 -24 -5 -44 -8 -44 -4 0 -10 -19 -13 -42 -12
-78 11 -73 -345 -76 -367 -3 -335 -12 -347 99 -12 106 -10 163 4 187 7 12 10
26 8 31 -3 5 7 17 22 27 20 14 47 19 102 20 41 1 80 2 87 3 13 1 12 39 -1 60
-5 7 -10 55 -11 105 -4 133 2 139 133 141 129 3 146 14 102 65 -24 28 -22 17
-24 115 -2 83 8 116 40 140 25 18 196 14 219 -5z m316 5 c28 -18 38 -78 34
-195 -2 -66 -1 -119 3 -119 4 1 12 0 17 -1 6 -1 33 -4 60 -5 28 -1 62 -3 77
-4 44 -2 57 -40 60 -180 2 -89 6 -121 16 -121 6 0 12 -4 12 -9 0 -6 12 -6 29
-1 60 17 141 -15 141 -57 0 -7 4 -13 9 -13 15 0 28 -199 16 -247 -11 -44 -24
-45 -437 -44 l-216 1 -40 73 c-37 67 -40 78 -37 138 4 65 27 139 45 139 18 0
10 41 -12 63 -28 27 -30 35 -33 127 -2 83 12 124 45 133 25 6 19 26 -21 70
-26 28 -38 76 -30 120 1 5 3 26 5 48 5 51 32 92 56 86 10 -2 24 -1 31 4 15 9
153 4 170 -6z"/>
<path d="M2455 4160 c-3 -5 -1 -10 4 -10 6 0 11 5 11 10 0 6 -2 10 -4 10 -3 0
-8 -4 -11 -10z"/>
<path d="M2490 4162 c0 -4 9 -8 20 -9 11 -1 20 2 20 5 0 4 -9 8 -20 9 -11 1
-20 -2 -20 -5z"/>
<path d="M1200 3925 c-28 -29 -33 -39 -23 -53 6 -10 21 -16 34 -14 26 3 87
-35 95 -60 3 -10 9 -18 14 -18 15 0 24 24 12 28 -7 2 -12 10 -12 17 0 7 -9 15
-19 18 -13 3 -22 17 -27 43 -8 44 -21 74 -32 74 -5 0 -23 -16 -42 -35z"/>
<path d="M1340 3776 c0 -7 7 -19 15 -26 9 -7 13 -15 10 -18 -3 -3 0 -11 6 -18
6 -8 11 -29 12 -49 1 -19 4 -35 7 -35 3 0 25 20 49 45 29 30 41 50 37 61 -4 9
-9 14 -13 11 -3 -4 -15 -1 -27 5 -19 10 -20 10 -7 -6 13 -16 12 -16 -15 -4
-16 7 -35 21 -42 30 -16 21 -32 23 -32 4z"/>
<path d="M1525 3780 c-3 -5 -1 -10 4 -10 6 0 11 5 11 10 0 6 -2 10 -4 10 -3 0
-8 -4 -11 -10z"/>
<path d="M1495 3740 c-3 -5 -1 -10 4 -10 6 0 11 5 11 10 0 6 -2 10 -4 10 -3 0
-8 -4 -11 -10z"/>
<path d="M1309 3563 c-13 -16 -12 -17 4 -4 9 7 17 15 17 17 0 8 -8 3 -21 -13z"/>
<path d="M3640 3750 c0 -5 5 -10 11 -10 5 0 7 5 4 10 -3 6 -8 10 -11 10 -2 0
-4 -4 -4 -10z"/>
<path d="M3780 3611 c0 -10 19 -25 25 -20 1 2 -3 10 -11 17 -8 7 -14 8 -14 3z"/>
<path d="M960 2779 c0 -5 5 -7 10 -4 6 3 10 8 10 11 0 2 -4 4 -10 4 -5 0 -10
-5 -10 -11z"/>
<path d="M574 2578 c-4 -5 -17 -8 -29 -5 -17 3 -26 -2 -33 -17 -8 -17 -6 -22
7 -22 9 0 35 -4 59 -8 l43 -8 -3 33 c-3 32 -30 49 -44 27z"/>
<path d="M960 2485 c0 -8 2 -15 4 -15 2 0 6 7 10 15 3 8 1 15 -4 15 -6 0 -10
-7 -10 -15z"/>
<path d="M1357 1489 c7 -7 15 -10 18 -7 3 3 -2 9 -12 12 -14 6 -15 5 -6 -5z"/>
<path d="M1600 1240 c0 -5 5 -10 11 -10 5 0 7 5 4 10 -3 6 -8 10 -11 10 -2 0
-4 -4 -4 -10z"/>
<path d="M3715 1407 l-30 -32 29 -3 c16 -2 39 -16 53 -33 14 -16 31 -29 39
-29 9 0 12 -4 9 -10 -3 -5 -2 -10 3 -10 14 0 62 -84 62 -108 0 -24 26 -47 62
-56 15 -3 44 -17 64 -31 20 -14 41 -25 45 -25 15 0 10 20 -6 26 -8 4 -15 13
-15 20 0 8 -6 17 -14 20 -8 3 -17 22 -21 42 -7 40 -37 72 -67 72 -28 0 -56 17
-99 61 -20 21 -40 35 -44 31 -4 -4 -6 0 -3 8 3 8 -1 20 -9 25 -7 6 -14 22 -15
38 -1 15 -5 27 -8 27 -3 0 -18 -15 -35 -33z"/>
<path d="M4061 1061 c-8 -6 -9 -11 -3 -15 6 -3 14 -1 17 5 9 14 2 20 -14 10z"/>
</g>
</svg>
